<?xml version="1.0" encoding="utf-8"?>
<svg viewBox="0 0 256 256" xmlns="http://www.w3.org/2000/svg" xmlns:bx="https://boxy-svg.com">
  <rect width="256" height="256" style="paint-order: fill; fill: rgb(20, 51, 93); vector-effect: non-scaling-stroke;" fill="none" fill-rule="evenodd">
    <title>background</title>
  </rect>
  <path d="M 443.794 405.709 L 493.794 505.709 L 393.794 505.709 L 443.794 405.709 Z" style="fill: rgb(115, 234, 239); transform-origin: 443.794px 455.709px;" transform="matrix(0, 1, -1, 0, -305.794036865234, -327.709014892578)" bx:shape="triangle 393.794 405.709 100 100 0.5 0 1@27685230">
    <title>play</title>
  </path>
  <path d="M 68 24.077 C 140.503 -17.783 229.434 25.716 245.464 103 L 214.46 103 C 208.086 80.964 193.417 61.846 173 50.058 C 126.359 23.13 70.654 43.299 48.16 86.16 L 65 103 L 10 103 L 10 48 L 26.302 64.302 C 36.536 47.96 50.725 34.051 68 24.077 Z M 188 231.923 C 115.497 273.783 26.566 230.284 10.536 153 L 41.54 153 C 47.914 175.036 62.583 194.154 83 205.942 C 129.641 232.87 185.346 212.701 207.84 169.84 L 191 153 L 246 153 L 246 208 L 229.698 191.698 C 219.464 208.04 205.275 221.949 188 231.923 Z" style="fill: rgb(115, 234, 239);">
    <title>sync</title>
  </path>
</svg>